<?xml version="1.0" encoding="UTF-8"?>
<svg id="Layer_1" data-name="Layer 1" xmlns="http://www.w3.org/2000/svg" viewBox="0 0 945.84 955.94">
  <defs>
    <style>
      .cls-1 {
        fill: #31c4f3;
      }
    </style>
  </defs>
  <path class="cls-1" d="M454.36,879.67c-39.44,0-72.01,29.34-77.12,67.38,29.75,5.81,60.47,8.9,91.89,8.9,21.3,0,42.27-1.42,62.83-4.13-2.92-40.33-36.54-72.14-77.61-72.14Z"/>
  <circle class="cls-1" cx="442.15" cy="708.44" r="154.89"/>
  <circle class="cls-1" cx="814.17" cy="567.45" r="118.15" transform="translate(-162.78 741.9) rotate(-45)"/>
  <circle class="cls-1" cx="684.83" cy="446.64" r="45.01"/>
  <path class="cls-1" d="M159.56,607.76c0-42.99-34.85-77.84-77.84-77.84-38.16,0-69.88,27.46-76.53,63.69,6.17,24.7,14.25,48.65,24.1,71.67,13.83,12.62,32.23,20.31,52.43,20.31,42.99,0,77.84-34.85,77.84-77.84Z"/>
  <path class="cls-1" d="M743.39,267.22c0,96.81,78.48,175.28,175.28,175.28,9.24,0,18.31-.73,27.17-2.1-9.25-119.04-62.3-225.97-142.98-304.7-36.45,32.12-59.47,79.12-59.47,131.52Z"/>
  <path class="cls-1" d="M275.65,788.75c0-56.97-46.19-103.16-103.16-103.16-43.48,0-80.65,26.91-95.83,64.98,36.79,52.76,83.92,97.79,138.44,132.12,35.7-16.22,60.55-52.17,60.55-93.94Z"/>
  <path class="cls-1" d="M352.47,885.7c0-25.8-20.92-46.72-46.72-46.72s-46.72,20.92-46.72,46.72c0,9.23,2.71,17.8,7.33,25.05,16.33,7.68,33.15,14.48,50.43,20.3,20.47-4.97,35.68-23.36,35.68-45.35Z"/>
  <path class="cls-1" d="M729.84,161.61c26.61,0,49.73-14.92,61.46-36.85-34.1-31.14-72.7-57.43-114.71-77.74-10.24,12.13-16.43,27.8-16.43,44.92,0,38.48,31.19,69.67,69.67,69.67Z"/>
  <path class="cls-1" d="M554.48,137.83c47.13,0,85.34-38.21,85.34-85.34,0-7.79-1.06-15.32-3.02-22.49C589.96,12.4,539.65,1.96,487.21,0c-11.31,14.48-18.07,32.69-18.07,52.48,0,47.13,38.21,85.34,85.34,85.34Z"/>
  <path class="cls-1" d="M264.46,72.59c0-8.76-1.15-17.24-3.29-25.32-55.68,27.01-105.37,64.51-146.48,109.91,14.89,9,32.34,14.18,51,14.18,54.55,0,98.77-44.22,98.77-98.77Z"/>
  <path class="cls-1" d="M124.79,289.95c0-36.07-19.34-67.61-48.21-84.85C39.51,258.31,12.97,319.36,0,385.23c8.3,2.26,17.02,3.49,26.03,3.49,54.55,0,98.77-44.22,98.77-98.77Z"/>
</svg>